# xmcd CD database file
#
# Track frame offsets:
#	150
#	12936
#	26986
#	41978
#	56101
#	69217
#	81471
#	96415
#	111644
#	126349
#	139925
#	154565
#	168280
#	181864
#	195879
#	208544
#	220298
#	234170
#	248074
#	263123
#	277287
#	288546
#	303821
#	318274
#
# Disc length: 4453 seconds
#
# Revision: 0
# Processed by: cddbd v1.5.2PL0 Copyright (c) Steve Scherf et al.
# Submitted via: CDex 1.70beta2
#
DISCID=65116318
DTITLE=Various Artist - That Devilin' Tune (A Jazz History) Volume 1 [CD4)
DYEAR=2006
DGENRE=Jazz
TTITLE0=Bert Williams - Unlucky Blues
TTITLE1=Lousiana 5 - Weeping Willow Blues
TTITLE2=Paul Whiteman - Wang Wang Blues
TTITLE3=Eubie Blake - Sounds Of Africa
TTITLE4=Bert Williams - Brother Low Down
TTITLE5=James P Johnson - Harlem Strut
TTITLE6=Zez Confrey - Poor Buttermilk
TTITLE7=Ethel Waters - There'll Be Some Changes Made
TTITLE8=Al Bernard - Frankie and Johnny
TTITLE9=Ladd's Black Aces - Shake It And Break It
TTITLE10=Ladd's Black Aces - Aunt Hagar's Children's Blues
TTITLE11=Johnny Dunn - Old Time Blues
TTITLE12=Eubie Blake - Ma
TTITLE13=Mamie Smith's Jazz Hounds - Royal Garden Blues
TTITLE14=Fletcher Henderson - Unknown Blues
TTITLE15=Unidentified - Muscle Shoals Blues
TTITLE16=Sissle's Sizzling Syncopators - Low Down Blues
TTITLE17=Sissle's Sizzling Syncopators - Long Done
TTITLE18=Southern Negro Quartet - I'll Be Good But I'll Be Lonesome
TTITLE19=Sophie Tucker - Pick Me Up and Lay Me Down in Dear Old Dixieland
TTITLE20=Husk O'Hare - Sam
TTITLE21=Kid Ory - Ory's Creole Trombone
TTITLE22=Kid Ory - Society Blues
TTITLE23=Lizzie Miles - She Walked Right Up and Took My Man Away
EXTD=YEAR: 2006
EXTT0=
EXTT1=
EXTT2=
EXTT3=
EXTT4=
EXTT5=
EXTT6=
EXTT7=
EXTT8=
EXTT9=
EXTT10=
EXTT11=
EXTT12=
EXTT13=
EXTT14=
EXTT15=
EXTT16=
EXTT17=
EXTT18=
EXTT19=
EXTT20=
EXTT21=
EXTT22=
EXTT23=
PLAYORDER=
